<svg width="163" height="36" viewBox="0 0 163 36" fill="none" xmlns="http://www.w3.org/2000/svg">
<path d="M51.0711 10.8099C55.0076 10.8099 58.2094 13.9292 58.2094 17.7643C58.2094 21.5993 55.0076 24.7186 51.0711 24.7186H46.1762V10.8099H51.0711ZM51.0711 6.82866H44.3357C43.1087 6.82866 42.0897 7.81884 42.0897 9.01681V26.5143C42.0897 27.7097 43.1061 28.7025 44.3357 28.7025H51.0711C57.2799 28.7025 62.2959 23.8157 62.2959 17.7668C62.2959 11.718 57.2799 6.82866 51.0711 6.82866Z" fill="black"/>
<path d="M82.0042 26.7144C82.0042 27.8021 81.08 28.7025 79.9635 28.7025C78.8471 28.7025 77.9229 27.8021 77.9229 26.7144V20.7502C77.9229 18.5441 76.1061 16.7741 73.8416 16.7741C71.5772 16.7741 69.7604 18.5441 69.7604 20.7502V26.7144C69.7604 27.8021 68.8362 28.7025 67.7198 28.7025C66.6033 28.7025 65.6791 27.8021 65.6791 26.7144V8.81932C65.6791 7.73166 66.6033 6.83126 67.7198 6.83126C68.8362 6.83126 69.7604 7.73166 69.7604 8.81932V13.8831C70.94 13.2007 72.3434 12.7954 73.8416 12.7954C78.3363 12.7954 82.0042 16.3688 82.0042 20.7477V26.7144Z" fill="black"/>
<path d="M90.0404 26.7144C90.0404 27.8021 89.1162 28.7025 87.9998 28.7025C86.8834 28.7025 85.9592 27.8021 85.9592 26.7144V14.786C85.9592 13.6984 86.8834 12.798 87.9998 12.798C89.1162 12.798 90.0404 13.6984 90.0404 14.786V26.7144Z" fill="black"/>
<path d="M116.953 26.7144C116.953 27.8021 116.029 28.7025 114.912 28.7025C114.37 28.7025 113.859 28.4844 113.477 28.1125L105.728 20.563L97.9818 28.1125C97.6 28.4844 97.0891 28.7025 96.5467 28.7025C95.4303 28.7025 94.5061 27.8021 94.5061 26.7144V8.81932C94.5061 7.73166 95.4303 6.83126 96.5467 6.83126C97.6632 6.83126 98.5874 7.73166 98.5874 8.81932V21.9303L104.296 16.3688C104.678 15.9661 105.22 15.7788 105.731 15.7788C106.242 15.7788 106.784 15.9661 107.166 16.3688L112.874 21.9303V8.81932C112.874 7.73166 113.799 6.83126 114.915 6.83126C116.031 6.83126 116.956 7.73166 116.956 8.81932V26.7144H116.953Z" fill="black"/>
<path d="M125.5 26.7144C125.5 27.802 124.576 28.7024 123.459 28.7024C122.343 28.7024 121.418 27.802 121.418 26.7144V14.786C121.418 13.6984 122.343 12.798 123.459 12.798C124.576 12.798 125.5 13.6984 125.5 14.786V26.7144Z" fill="black"/>
<path d="M138.639 24.7263C139.213 24.7263 139.658 24.2928 139.658 23.731C139.658 23.1692 139.213 22.7357 138.639 22.7357H134.558C131.751 22.7357 129.455 20.4988 129.455 17.7642C129.455 15.0297 131.751 12.7928 134.558 12.7928H140.68C141.796 12.7928 142.72 13.6932 142.72 14.7809C142.72 15.8685 141.796 16.7689 140.68 16.7689H134.558C133.984 16.7689 133.536 17.2024 133.536 17.7642C133.536 18.326 133.981 18.7595 134.558 18.7595H138.639C141.446 18.7595 143.739 20.9964 143.739 23.731C143.739 26.4655 141.443 28.7024 138.639 28.7024H131.495C130.379 28.7024 129.455 27.802 129.455 26.7143C129.455 25.6267 130.379 24.7263 131.495 24.7263H138.639Z" fill="black"/>
<path d="M154.837 28.7024C150.34 28.7024 146.675 25.1291 146.675 20.7502C146.675 16.3713 150.34 12.798 154.837 12.798C159.332 12.798 163 16.3713 163 20.7502C163 21.8379 162.076 22.7383 160.959 22.7383H151.296C151.999 23.9491 153.305 24.7263 154.835 24.7263H156.875C157.992 24.7263 158.916 25.6267 158.916 26.7144C158.916 27.802 157.992 28.7024 156.875 28.7024H154.837ZM151.296 18.7596H158.374C157.673 17.5796 156.333 16.7715 154.835 16.7715C153.305 16.7715 151.999 17.5796 151.296 18.7596Z" fill="black"/>
<path d="M87.9999 11.305C89.268 11.305 90.2959 10.3035 90.2959 9.06815C90.2959 7.83275 89.268 6.83126 87.9999 6.83126C86.7318 6.83126 85.7039 7.83275 85.7039 9.06815C85.7039 10.3035 86.7318 11.305 87.9999 11.305Z" fill="url(#paint0_linear_1712_2630)"/>
<path d="M123.459 11.305C124.727 11.305 125.755 10.3035 125.755 9.06815C125.755 7.83275 124.727 6.83126 123.459 6.83126C122.191 6.83126 121.163 7.83275 121.163 9.06815C121.163 10.3035 122.191 11.305 123.459 11.305Z" fill="url(#paint1_linear_1712_2630)"/>
<path d="M25.4302 0H2.3408C1.04796 0 0 1.02097 0 2.2805V27.1325C0 28.056 0.571376 28.8872 1.44556 29.2386C2.3171 29.59 3.32557 29.3951 3.997 28.7435L15.2692 17.7617C16.1828 16.8716 16.1828 15.4273 15.2692 14.5372C14.3555 13.6471 12.8731 13.6471 11.9594 14.5372L4.6816 21.6275V4.56099H25.4328C28.9374 4.56099 31.7864 7.33915 31.7864 10.7509V24.7751C31.7864 28.1894 28.9348 30.965 25.4328 30.965H14.2686L21.5464 23.8747C22.4601 22.9845 22.4601 21.5403 21.5464 20.6502C20.6327 19.76 19.1503 19.76 18.2366 20.6502L6.96184 31.6345C6.29304 32.2861 6.09292 33.2686 6.45365 34.1202C6.81702 34.9719 7.67013 35.5286 8.6154 35.5286H25.4276C31.5126 35.5286 36.4627 30.7059 36.4627 24.7776V10.7535C36.468 4.82521 31.5178 0 25.4302 0Z" fill="url(#paint2_linear_1712_2630)"/>
<path d="M25.3327 19.2444C26.6256 19.2444 27.6735 18.2235 27.6735 16.9639V10.8484C27.6735 9.58889 26.6256 8.56792 25.3327 8.56792H19.0555C17.7627 8.56792 16.7147 9.58889 16.7147 10.8484C16.7147 12.108 17.7627 13.1289 19.0555 13.1289H22.9919V16.9639C22.9919 18.2235 24.0399 19.2444 25.3327 19.2444Z" fill="url(#paint3_linear_1712_2630)"/>
<defs>
<linearGradient id="paint0_linear_1712_2630" x1="85.7045" y1="9.06725" x2="90.2954" y2="9.06725" gradientUnits="userSpaceOnUse">
<stop stop-color="#0068FF"/>
<stop offset="1" stop-color="#0000E1"/>
</linearGradient>
<linearGradient id="paint1_linear_1712_2630" x1="121.164" y1="9.06725" x2="125.755" y2="9.06725" gradientUnits="userSpaceOnUse">
<stop stop-color="#FF9852"/>
<stop offset="0.2774" stop-color="#FF8A3A"/>
<stop offset="1" stop-color="#FF6700"/>
</linearGradient>
<linearGradient id="paint2_linear_1712_2630" x1="22.8397" y1="10.7934" x2="3.74923" y2="30.3887" gradientUnits="userSpaceOnUse">
<stop stop-color="#0068FF"/>
<stop offset="1" stop-color="#0000E1"/>
</linearGradient>
<linearGradient id="paint3_linear_1712_2630" x1="27.4647" y1="8.77235" x2="20.4999" y2="15.9213" gradientUnits="userSpaceOnUse">
<stop stop-color="#FF9852"/>
<stop offset="0.2774" stop-color="#FF8A3A"/>
<stop offset="1" stop-color="#FF6700"/>
</linearGradient>
</defs>
</svg>
